/* XPM */
static char *ConcretePanel_01_64[] = {
/* columns rows colors chars-per-pixel */
"64 64 244 2 ",
"   c None",
".  c gray6",
"X  c gray12",
"o  c #2F2F2F",
"O  c #3F3F3F",
"+  c #4B4B4B",
"@  c #5B5B5B",
"#  c gray42",
"$  c #7B7B7B",
"%  c #8B8B8B",
"&  c #9B9B9B",
"*  c gray67",
"=  c #BBBBBB",
"-  c #CBCBCB",
";  c gray86",
":  c gray92",
">  c #0F0B07",
",  c #170F0B",
"<  c #1F170B",
"1  c #271B0F",
"2  c #2F2313",
"3  c #372B17",
"4  c #3F2F17",
"5  c #4B371B",
"6  c #533B1B",
"7  c #5B431F",
"8  c #634B1F",
"9  c #6B531F",
"0  c #73571F",
"q  c #7B5F23",
"w  c #836723",
"e  c #8F6F23",
"r  c #0B0B0F",
"t  c #13131B",
"y  c #1B1B27",
"u  c #272733",
"i  c #2F2F3F",
"p  c #37374B",
"a  c #3F3F57",
"s  c #474767",
"d  c #4F4F73",
"f  c #5B5B7F",
"g  c #63638B",
"h  c #6B6B97",
"j  c #7373A3",
"k  c #7B7BAF",
"l  c #8383BB",
"z  c #8B8BCB",
"x  c #070700",
"c  c #0B0B00",
"v  c #131300",
"b  c #1B1B00",
"n  c #232300",
"m  c #2B2B07",
"M  c #2F2F07",
"N  c #373707",
"B  c #3F3F07",
"V  c #474707",
"C  c #4B4B0B",
"Z  c #53530B",
"A  c #5B5B0B",
"S  c #63630B",
"D  c #6B6B0F",
"F  c #070000",
"G  c #0F0000",
"H  c #170000",
"J  c #1F0000",
"K  c #270000",
"L  c #2F0000",
"P  c #370000",
"I  c #3F0000",
"U  c #470000",
"Y  c #4F0000",
"T  c #570000",
"R  c #5F0000",
"E  c #670000",
"W  c #6F0000",
"Q  c #770000",
"!  c #7F0000",
"~  c #2F2B00",
"^  c #372F00",
"/  c #433700",
"(  c #4B3B07",
")  c #574307",
"_  c #5F4707",
"`  c #6B4B0B",
"'  c #77530F",
"]  c #835713",
"[  c #8B5B13",
"{  c #975F1B",
"}  c #A3631F",
"|  c #AF6723",
" . c #231307",
".. c #2F170B",
"X. c #3B1F0F",
"o. c #4B2313",
"O. c #572B17",
"+. c #632F1F",
"@. c #733723",
"#. c #7F3B2B",
"$. c #8F4333",
"%. c #9F4F33",
"&. c #AF632F",
"*. c #BF772F",
"=. c #CF8F2B",
"-. c #DFAB27",
";. c #EFCB1F",
":. c #FFF31B",
">. c #0B0700",
",. c #1B1300",
"<. c #2B230F",
"1. c #372B13",
"2. c #47331B",
"3. c #533723",
"4. c #633F2B",
"5. c #6F4733",
"6. c #7F533F",
"7. c #8B5F47",
"8. c #9B6B53",
"9. c #A77B5F",
"0. c #B7876B",
"q. c #C3937B",
"w. c #D3A38B",
"e. c #E3B397",
"r. c #AB8BA3",
"t. c #9F7F97",
"y. c #937387",
"u. c #8B677B",
"i. c #7F5B6F",
"p. c #775363",
"a. c #6B4B57",
"s. c #5F3F4B",
"d. c #573743",
"f. c #4B2F37",
"g. c #43272F",
"h. c #371F23",
"j. c #2B171B",
"k. c #231313",
"l. c #170B0B",
"z. c #0F0707",
"x. c #BB739F",
"c. c #AF6B8F",
"v. c #A35F83",
"b. c #975777",
"n. c #8B4F6B",
"m. c #7F4B5F",
"M. c #734353",
"N. c #6B3B4B",
"B. c #5F333F",
"V. c #532B37",
"C. c #47232B",
"Z. c #3B1F23",
"A. c #2F171B",
"S. c #DBC3BB",
"D. c #CBB3A7",
"F. c #BFA39B",
"G. c #AF978B",
"H. c #A3877B",
"J. c #977B6F",
"K. c #876F5F",
"L. c #7B6353",
"P. c #6B5747",
"I. c #5F4B3B",
"U. c #533F33",
"Y. c #433327",
"T. c #372B1F",
"R. c #271F17",
"E. c #1B130F",
"W. c #6F837B",
"Q. c #677B6F",
"!. c #5F7367",
"~. c #576B5F",
"^. c #4F6357",
"/. c #475B4F",
"(. c #3F5347",
"). c #374B3F",
"_. c #2F4337",
"`. c #2B3B2F",
"'. c #233327",
"]. c #1F2B1F",
"[. c #172317",
"{. c #0F1B13",
"}. c #0B130B",
"|. c #070B07",
" X c #EFDF17",
".X c #DBCB13",
"XX c #CBB70F",
"oX c #BBA70F",
"OX c #AB970B",
"+X c #9B8307",
"@X c #8B7307",
"#X c #7B6307",
"$X c #6B5300",
"%X c #5B4700",
"&X c #4B3700",
"*X c #3B2B00",
"=X c #2B1F00",
"-X c #1B0F00",
";X c blue",
":X c #0B0BEF",
">X c #1313DF",
",X c #1B1BCF",
"<X c #2323BF",
"1X c #2B2BAF",
"2X c #2F2F9F",
"3X c #2F2F8F",
"4X c #2F2F7F",
"5X c #2F2F6F",
"6X c #2F2F5F",
"7X c #2B2B4F",
"8X c #23233F",
"9X c #1B1B2F",
"0X c #13131F",
"qX c #2B0000",
"wX c #3B0000",
"eX c #4B0700",
"rX c #5F0700",
"tX c #6F0F00",
"yX c #7F1707",
"uX c #931F07",
"iX c #A3270B",
"pX c #B7330F",
"aX c #C34B1B",
"sX c #CF632B",
"dX c #DB7F3B",
"fX c #E3974F",
"gX c #E7AB5F",
"hX c #EFBF77",
"jX c #F7D38B",
"kX c #A77B3B",
"lX c #B79B37",
"zX c #C7C337",
"xX c #E7E357",
"cX c #7FBFFF",
"vX c #ABE7FF",
"bX c #D7FFFF",
"nX c #8B0000",
"mX c #B30000",
"MX c #D70000",
"NX c red",
"BX c #FFF393",
"VX c #FFF7C7",
"CX c white",
"ZX c #9F5B53",
/* pixels */
"+ + + + + + + + + + + + + + + + + + + + + + + + + + + + + + + + + + + + + + + + + + + + + + + + + + + + + + + + + + + + + + + + ",
"+ - - - - - - - - - - - - - - - - - - - - - - - - - - - - - - - - - - - - - - - - - - - - - - - - - - - - - - - - - - - - - - + ",
"+ - % & % & & & & & % & & & * * & & * & & & & * $ & % & % % % * & & % & & & & & % & & % * * * & & & % & % % % % % % * * & % # + ",
"+ - & % & % & & $ & * * & & * & & & & & & & & & * & & % & % % % & & % % & % * * & & * $ & & * & & % & & & % & & & % % % & & # + ",
"+ - & & & & & & * * & & & & * * % & * & & & & & * * & * % % & & & % $ % % % % & & & * * & & & & & % & & % & % % & % % & & % # + ",
"+ - $ & & & & & & % * & * * & & & & * & & & & & * % & & & % $ % & % % % & & & & & & * & * & * * & % & % & & % & & & & & % % # + ",
"+ - % & % & * & * & & * & & * & & & * & & & & * & & & & & % % % % % % & * * & & * % & & * & & & % % & & & % % $ % % & & & & # + ",
"+ - & & & & & o o & & & * & & % & & & & & & & & & & * & & % & % % % % % & % & & & & * & & % & & % & % % & & $ o o o % & & & # + ",
"+ - & % % & & o + & & & & & & & & * * & & & & & & & & & & & % % $ & & & & & * & & * & & & & & & & & % & & % * o + & * & & & # + ",
"+ - & % % & & o & o & & * * & & & & * & & & & % * & & % & & % & % $ * & % * & & % & & & % & & & & & & & & & * & & o & & & % # + ",
"+ - & * % & & & & & & & & & & * & & * * & & % & * & & & & & & & % & * & % * $ & % & % * & & & & * & & & & & & & * * & & % & # + ",
"+ - % % % & * % & & & & * & & & & * & & & & % * * & * * & & & % & * $ & & & $ * % % % % & & & & & & * % & & & * & % & % & & # + ",
"+ - & % % & & & & & & & $ & & % & & & & & & * & & % & & & & % & * * & % * % % & & & & % & & * % & * & & & & & * & & % % & & # + ",
"+ - & & % & & & & & & * % & & & & & & & & & * & * & & & % & & * & & & & % & $ & * & & * % % & % & * & & & & & * & & & % & & # + ",
"+ - & & % % % % % & & % & & % & & & & & & & & & & & & & & & % * & * & & & * % $ & * * * % & * & & & & * * & * % % * & & & & # + ",
"+ - $ % % % % & & & & & & & & % % & % & & & & * & & & & & & & & & % & & & & $ * & * * & * * & & & & & * & * & % & * % & & % # + ",
"+ - % % % & % % & % & & * & * & & & & % & & % & & & $ % % & & & & % % & & * j * * & & * * & & * & & & & % & & & % & % & % % # + ",
"+ - & & & % % & & & & % & & & & % & & & & & & * % $ % % % & & % & & & & * * $ & = * * & * & * & & & & & * * & & & & & % % % # + ",
"+ - % & & & % & & & & & & & * & * & & & & * * * & & * % % % % % & & * * * * & * & & & * & * % * = * & * * * * * & % % & & % # + ",
"+ - % & % & % & & & & & & & & % & & & & * & & * % & % & % % % & & & * & * * $ & = * & * & & * * * & * & & & & & & & & & * % # + ",
"+ - % & % & % & & * & & & % & & * & % & * & & % & % & & % & & * * & & & * & * * * = * % * * & * * * * $ * * & % & = % % & & # + ",
"+ - & % % % % % & & & & & & & & * & * * & & & $ & % * & * & & & * * & & * * * & * = * = = & * * * & & & * & * & * & & % * & # + ",
"+ - % % % % % $ & & % & % % * * & * & % * % & & % * & & & & & * * & & & * & * * * * * & * * * = * * * & & = * * & & * & & & # + ",
"+ - % & % % & * & & & & & & & & * * & & * & * * * & & & % * * * & * * * & * * * = * * * & & & & * * * & * & & % & & & & & & # + ",
"+ - % & * * & & * * * & & & & * & * & % % & & & & % & & % & * * & * * & * * * * * & * * & * & & * * & & * & * & & & & * * & # + ",
"+ - & * & & * * & % * & * * & & * * * & & & * * & * & & * & & * & & & & % & * & & & & & & & & & & * * & & & & * & & & * % * # + ",
"+ - & & & % & % & & & & & & & & % * * % & * & * & * * & & & * & % * * & * & & & * & & * & & $ & & * & & & * & % & & & * % * # + ",
"+ - % % % % & & * * & & * * * * & * = & & & * % * & & & * & % % * * & % & * % % * & & % % & % & & & & & % % % % & & & & & % # + ",
"+ - % & & & & & & & * & & * & & & * & & & & & & * * & & & & & % $ & * % & * & & & & % % % % % % & % % % & % & % & % % % & & # + ",
"+ - & $ % & $ & * & & & * & * % & * & & & & & & % % & & % % & & & & & & % & & & & * & % & % % & & & & & & & & % * % & % % & # + ",
"+ - & & & % & % & & & % % & & % & & & % & % & & & & % * & % & & & & & & & & * * % * * % & % % % % & % % % & % & % & % % % % # + ",
"+ - & & % & % & & & & & % % & & & & & & & & & & & & & % & % & % * & * & % % * * * & * & & * % & % % % % % % % & $ & % & & & # + ",
"+ - % % % & % & & % & j % & & & & & % % & & & * & % % % & & & & & * % % % & & & & & & & & % & & & * % & % % & & & % % % & & # + ",
"+ - % % % % % & & % & $ % % % % & % & % & * * & & & & % $ & & & * % & & & & & & % % % % & & & % % & % % % & % % % % $ % & % # + ",
"+ - % % % & % $ % & & & & % & & & & & % & & * * & & & % & & * & * & & % & & % & & % % % & % % & % % % % % & % & % % % % & % # + ",
"+ - % $ % % % % % $ % & % % % & & $ & & % % & & & * * & & * & & & * & % & % % & % % % % % & % % % % % % % % & % % % j % % % # + ",
"+ - % % % % % & % $ & % $ * & % % % % % % % % & & & * & & & * & & * & % & & % % % $ $ % % % % % % & % % % % % % % % & % % * # + ",
"+ - % & % $ % % % % % % % % % % % & % % % & & & & % * & & & & & & & $ % % % % % % % % & & % % % % % $ $ % % & % & % & % % & # + ",
"+ - % % & % % $ $ % & % % % % % & % & % & & & & & & * & & & & & & % % $ % & % % $ % % % & & % & % % & & % % % $ % % & & % & # + ",
"+ - % $ % % % % $ % % & $ % % % % % & & & % & & & & % & % % % $ % % % % % & $ % $ & % & & & % % % % % & % $ % % % % % & % % # + ",
"+ - % $ % $ % % & & % % % $ & % % & & % & & & * % & & & & & % & % % & % % % $ % % % & & % & & % % & % & % & % % % % % & $ % # + ",
"+ - % $ % % & % % % % & % % & * & & & $ & * & * & % * * % * % & & % & % & % % & & & * & & & & & & & & * & % % $ & % % % % % # + ",
"+ - % % % % % & & $ % & % % % & % & % & * & & & % % % $ * % $ % % & % & % % $ $ % & $ * & % & & & & & % $ % $ $ % $ % % % % # + ",
"+ - % & & & & % & & & & & $ & % * & & & & & & & * & & $ & % % % % & & % % % % % & & & & % % & % & & % % & % % % % % % & & & # + ",
"+ - % % & * & % & & & & % & & & & * = * & & & & & & & % & % % % & & & % % % % % % % & & & & & $ & % % % & % % % % % % % % % # + ",
"+ - & % $ & & & & & & & & % & % & & % & & % & & & * * * % % % & & & % % & % % % % % & & & % % & & & % % & & % & % % & % % % # + ",
"+ - & % % % $ % & $ % & & & * & * & & * & & & & * * & & & % & & & * % % % & % % % % & % % % & % $ & & % & % & % % % & % % & # + ",
"+ - & $ % & & & & % * % * & & & & & & & & * * & * & & % % & & & & * % % & % % % % % & % % % % % & & % % $ & % % & $ % % & % # + ",
"+ - & & % & % % & & * & & & & & & & * % & % & & * % & & % & & % & % & & * & & % % % % % % & % % & % % & & * % % % & % % $ % # + ",
"+ - & $ % % % & & & % % & * * * & & * & & & & & & & & & & % & & & % & & & * & & % % & % & % % % & % & & $ % % % % % % % $ % # + ",
"+ - % % % & % & % % & % & & & % & & & & % & & % % % & % $ & % $ % & % & & & & & % & & & % & $ % % & % & & & & * % % & % % & # + ",
"+ - & $ % % % % & * * & * * * & & * & % & & & % % % $ % % % $ & % % % % & & % % & & & & & % j $ j % & & & % & & % % $ % $ & # + ",
"+ - & % & % % % & & & & & & & % & & & % % % % % & % % % % % % % % % & % & & % % & & & & & % % * % & & % % % & & & & % % & & # + ",
"+ - % & * % % & & & & & % & & $ & & & % & & & % * % & % % % & % % % % % % % & & % & & & % % % & & % & & % % & % & % & & & % # + ",
"+ - & % % % % & & & * & & & % & % % & & * & % & % % % & % % & % & % % & % % & % & & & & % % $ % % & % % % & % % % & % * & % # + ",
"+ - & & & & % o o o % & % % * * & * & * & & * & % % % & % & & & & & & % % % % % & & & % $ % % & & & * & & % * o o % & & & & # + ",
"+ - % % % & % o + % & & * & & * * & * * & $ % & % & & % % & & & & % % % & % % % % & % % % % % % & & * & & % & o + % & & % & # + ",
"+ - $ & & & & & & o % & * & = & & * & & & % & % % & & & & & % & & % % % % % $ & % $ % $ $ $ % % & * * * % & % o % o & % * & # + ",
"+ - & & & % % & & % & & & & & % * % * % % % & % & & % % % & % j % & % % % % $ $ & % % % % $ % % * & % $ % % % % % & & & & & # + ",
"+ - % % & & % % % % & & % % & % & % & & % % % % & % % & j % % % % % $ % % % % & $ & % $ % & & % & & & & % % % & & & & & & & # + ",
"+ - % & & % % % % % & & & % * % % & & & % % % & & $ & & % % % % * % & $ $ % $ % % % % % % % % % & & % % & & % & & % % $ & & # + ",
"+ - & j % & & j & & & & & % % & & & & $ g % % % & % % % % % % % % % % % $ % % % % % % & % % % % $ % & & $ & % & % & % & % % # + ",
"+ - # # # # # # # # # # # # # # # # # # # # # # # # # # # # # # # # # # # # # # # # # # # # # # # # # # # # # # # # # # # # # + ",
"+ + + + + + + + + + + + + + + + + + + + + + + + + + + + + + + + + + + + + + + + + + + + + + + + + + + + + + + + + + + + + + + + "
};
