/* XPM */
static char *east[] = {
/* columns rows colors chars-per-pixel */
"64 64 236 2 ",
"   c #0E0E0E",
".  c #100E0F",
"X  c #0F1011",
"o  c #141313",
"O  c #171719",
"+  c #191719",
"@  c #1B1A1C",
"#  c #19201E",
"$  c #1E1E20",
"%  c #211F21",
"&  c #1F2021",
"*  c #232324",
"=  c #2A2525",
"-  c #252528",
";  c #2A262B",
":  c #272A2B",
">  c #2C2B2C",
",  c #322C2E",
"<  c #3D342F",
"1  c #2D2E31",
"2  c #2B2C39",
"3  c #312E31",
"4  c #3E2F3C",
"5  c #2C3334",
"6  c #333234",
"7  c #3B3536",
"8  c #363639",
"9  c #393639",
"0  c #383938",
"q  c #3B3A3C",
"w  c #482E33",
"e  c #48373A",
"r  c #433C3E",
"t  c #3A413E",
"y  c #293844",
"u  c #3D3D42",
"i  c #3A3847",
"p  c #423D43",
"a  c #473A49",
"s  c #543B45",
"d  c #463B56",
"f  c #3C4245",
"g  c #3F475C",
"h  c #434344",
"j  c #4A4344",
"k  c #484A46",
"l  c #44444A",
"z  c #454A4B",
"x  c #4B4A4B",
"c  c #544848",
"v  c #524B4D",
"b  c #4E524C",
"n  c #52534E",
"m  c #494756",
"M  c #4D4C52",
"N  c #524D52",
"B  c #584A58",
"V  c #4D5153",
"C  c #49555A",
"Z  c #535354",
"A  c #585555",
"S  c #54535B",
"D  c #5B555C",
"F  c #545C5D",
"G  c #5C5B5C",
"H  c #654B59",
"J  c #665757",
"K  c #63555C",
"L  c #635C5D",
"P  c #705B58",
"I  c #4C655A",
"U  c #58635D",
"Y  c #65625C",
"T  c #4C4A67",
"R  c #5B4D62",
"E  c #495564",
"W  c #5B5662",
"Q  c #535D63",
"!  c #5D5C62",
"~  c #585969",
"^  c #475F75",
"/  c #595C72",
"(  c #635C63",
")  c #6B5C63",
"_  c #6F566E",
"`  c #625B6B",
"'  c #68586A",
"]  c #745A65",
"[  c #675C74",
"{  c #5C6163",
"}  c #5A6568",
"|  c #4E6A74",
" . c #5C6473",
".. c #646365",
"X. c #6B6464",
"o. c #696B64",
"O. c #64646B",
"+. c #6C646C",
"@. c #646A6B",
"#. c #6B6A6C",
"$. c #736364",
"%. c #73646C",
"&. c #736C6C",
"*. c #796969",
"=. c #66716D",
"-. c #74726E",
";. c #646373",
":. c #6B6473",
">. c #646B73",
",. c #65677B",
"<. c #6C6C7B",
"1. c #766575",
"2. c #736C74",
"3. c #7A6D74",
"4. c #746D7B",
"5. c #7B6D7B",
"6. c #6D7374",
"7. c #6C737B",
"8. c #687678",
"9. c #747374",
"0. c #7B7374",
"q. c #7A7B75",
"w. c #73737B",
"e. c #7B747B",
"r. c #747A7C",
"t. c #7B7A7C",
"y. c #856E6D",
"u. c #846B75",
"i. c #867677",
"p. c #83767C",
"a. c #837B7C",
"s. c #7A837D",
"d. c #88837B",
"f. c #536884",
"g. c #7B6D82",
"h. c #6D7984",
"j. c #767383",
"k. c #7A7482",
"l. c #757C83",
"z. c #72778D",
"x. c #77788A",
"c. c #7C7C8A",
"v. c #836E84",
"b. c #837583",
"n. c #8B7884",
"m. c #827C8C",
"M. c #8B7D8A",
"N. c #937C89",
"B. c #877E91",
"V. c #917D96",
"C. c #768587",
"Z. c #7D8385",
"A. c #758A8F",
"S. c #7D8792",
"D. c #7592A1",
"F. c #848384",
"G. c #8B8484",
"H. c #878A86",
"J. c #84838B",
"K. c #8B858B",
"L. c #848B8D",
"P. c #8C8B8C",
"I. c #978788",
"U. c #92828C",
"Y. c #928B8C",
"T. c #8C928E",
"R. c #94928D",
"E. c #858492",
"W. c #8C8592",
"Q. c #858B92",
"!. c #8D8B93",
"~. c #87899B",
"^. c #8D8C9B",
"/. c #978995",
"(. c #938C94",
"). c #938C9B",
"_. c #849596",
"`. c #8C9394",
"'. c #8D939B",
"]. c #939395",
"[. c #9B9395",
"{. c #999A95",
"}. c #94949B",
"|. c #9B959B",
" X c #949A9C",
".X c #9B9B9D",
"XX c #A38D99",
"oX c #A5989A",
"OX c #A39C9D",
"+X c #9BA19E",
"@X c #A3A19D",
"#X c #938EA1",
"$X c #8D95A5",
"%X c #9495A2",
"&X c #9B95A2",
"*X c #949BA3",
"=X c #9C9CA3",
"-X c #9B99AA",
";X c #A39DA3",
":X c #AA9CA3",
">X c #A89BA8",
",X c #AC9BAD",
"<X c #9BA7A6",
"1X c #9BA3A9",
"2X c #A3A3A5",
"3X c #ABA3A5",
"4X c #A0A9A6",
"5X c #A5A5AA",
"6X c #ABA5AC",
"7X c #ABAAAC",
"8X c #B3A6AC",
"9X c #B3ABAD",
"0X c #A9B7AE",
"qX c #A6A9B2",
"wX c #ACACB2",
"eX c #B3ACB2",
"rX c #B8ADB7",
"tX c #ABB2B4",
"yX c #A6B5B8",
"uX c #B4B3B5",
"iX c #B5B3B9",
"pX c #B9B5B8",
"aX c #BBBABB",
"sX c #C4A9B3",
"dX c #C2B8BC",
"fX c #BDB8C3",
"gX c #C4BCC2",
"hX c #C9BEC1",
"jX c #BEC1C5",
"kX c #C7C5C7",
"lX c #D1CED2",
"zX c #D4D4D6",
"xX c #D8D6D9",
"cX c #DAD9DB",
"vX c #E6E6E8",
"bX c #EAEAEB",
/* pixels */
"@ @ @ @ @ @ @ @ @ @ @ @ @ @ @ @ @ @ @ @ @ @ @ @ @ @ @ @ @ @ @ @ $ @ @ @ @ @ @ @ # @ @ O @ @ @ @ @ % $ @ @ @ @ @ @ @ @ @ @ @ $ @ ",
"@ c.<.~.S.J.^.|.#X~..X^.*X).}.).).~.,X'.*X}..X'..X}.=X).%X=X}.$X-X<X}.*X.X).|.~.$Xc.*X^.).^.}.&X;X^.$X~.$X~.&X}.W.$X,X^.-X=X%X* ",
"* g.* - Q * i W ..H j d q C v B i l M k a H m E B R g m s N D R m H M b D m a ` m l d M A D p j H S C E d S q g m S > M - - ' ; ",
"* l.- ,XT : ; - > > > > 1 > > ; ; * > > > ; > > > > > > ; > 1 > - > > > > > - ; ; > > > > > > > > > : ; * - > * > ; > t.uX> 6.> ",
"; w.W T ) 2.n.~ i 2.l.b.4.3.j.8.C.l.,.q.<.b.l.M.a.u.m.r.Q #.<.[ f N.4.W.i.a.b.Y.J.5.) 5.#.`.e.[ E ` <.~ >.[ :.,.+.Q.y.F.a.e.l.> ",
"> ).3 , #.h.l.#.>.G.F.b.*.u.<.x.8.<.@.2.) v.l.J.d.9.u.# 5 | w.w.^ W.W.H.#.9.b.e.O.Z.Y.Z.F.;XN.].`.;XL.i.J.[.:XJ.t.y.G.p.6 9 ,.q ",
"9 ].F 8 M.~...l.p.S V.r.>.k.8.,.) 9.,.C.<.j.w.].W.C.x.6Xk 4.B.l.G.N.v._.U.!.(.E.c.J.~ m.M.b.F.j.4.(.x.].L.Y..X<X(.:X4X;Xp F.|.q ",
"q |.%.q :.E.C.eXiXiX5XwX7XuXuXpXiXwXiXiXeXrXrXiXaXpXiXpXlXgXqXtXtXrXaXeXaXaXfXkXgXdXfXkXgXpXiXaXgXkXlXfXkXaXgXgX|.(..X(.p `.Y.h ",
"i W.>.q U.G.e.2XF.<.l.0.<.R.c.!.(.J.B.U.(..X.XH.J.a.!.E.#.uX|.6XP.E.S.P.Y.<X&Xc.W.!.(.'.].J.'.x.!. X&X;X&X(.OX].G 6XP.J.p H.(.k ",
"p `.w.i w.`.H.;X|.x h J.U.r.i.u.t.K.].e.|.I.I.(.W.m.M.O.Q.D.c.l.l.J.].+X}.W.2XK.J.j.b.F.3X,Xl.*X:X&X.X|.].v Z 5X<..X=X}.v !..Xx ",
"p  X<.V 5.=XJ.sX!.h aXM.m.K.OXP.!.J.c.<.m.=XE.M.S.W.m.;X(.Y.U.OX).`.[.;X).;X*X}.!.U.|.2XOXOX!.}.*X|.J.5X4XkXM eXQ.;X;X=XN (.<XM ",
"h E.:.M }.:X.X9XOX[.M OX.X|.].|.6X2XOX:X@Xn.=X}.}.OXW.c._.).}.(.OX1X}.}.5X5XqXeXrXeX3X<X2X2X4X2XeX<X6X5X7XZ qX2Xl.9XeX4XZ H.6XZ ",
"z 5Xt.z %X!.=X;XK.!.*X|.6X=X=X.X|.2X4X2X2X@X=XOX}.).E.(.+X].'.=X=X[.;X8XuX=X6X=X}.;X2X5X2X,X9XuX8XqXOX2X2X.X4X<Xt.;X5X2XM !.4XZ ",
"M 5XJ.Z ,X X4XwXkXc.].OXx x j l z x k j x l l k P.!.).!.=X=X6Xx x h j V x N k x ;X7Xm 3X8X;XyXeXeXdXtX8X5X7XwX;Xg.1X5X2XD .X=XG ",
"..pX2XG pX7X,X8X1X|.}.L.q x ( A Z D G ! v G G S =X3X[.:XOX*XqXz L D { L G { S ) 7XOX.X;X5X6X=X7X6XpX6X=X3X8X].7XJ.oXtXiX..'.eXZ ",
"#.uX!.S }.}.eXiX5X:XOX3XG L 2.&.-.&.9.&.) 0.6.&.eXF.p &X4X2X5XN #.0.e.w.9.%.0.-.aX2X8X7X6X<XgXeX=XqX5X5X7XeXwX5XP.5XeX4X{ ;XwX..",
"%.1X+.S 6X7X9XpX5X;X1X3XA L 3.0.0.s.3.2.t.J.i.b.pX;X7X9X5X9X].V L l.9.8.w.p.t.t.dX6XqX0XwXwXuX5X2XwX9X=X7XtXuXwXY.6XwXtX..{.wX..",
"F aX~.D qX<XpXhX9XgX9X9XZ W p.b.t.t.b.0.0.C z K.tX%X<X7X5X=X].M D 9.+.w.O.<.9.2.iX6X<XOX6XeXqX4XuX7XeX9XiX4XwXwXK.2X2X6X{ |..X..",
"S pXOX..%XrX7X7XuX9X].eXv x -.9.t.t.a.<.l.9.9.F.pX9X9XwXwXrX4XN ( 2.%.<.&.0.F.pX6X2X.X2X<X}.}.'.wX5X4XeX7X6XeXrX!.qX4X6X{ .XiXK ",
"X.kX,XG fXrXrX X;XiXZ.qXN L $.0.l.C.e.b.2.2.w.@.G Z M z V l V l L @.&.6.o.<.jXsXtX<X|.tX7X7X7X=X;X.X=X5X1X=X=X6XK.<X2X XS }.=XS ",
"G uXOXY eX5X6XaX=X7X;X:Xx Z :.$.C #.<.9.t.Z.>.W 6X4XfXrX7XeX:Xx Z w.+.<.X.9X;X|.&X|.}.<X|.=X<X=X.X;X2X2X!.;X4X2Xc.2X2X=XD ^.5XD ",
"G aXOX@.OX6X.XtX3X2XeXyXx { ! w.t.&.L D e.&.O.#.uX6X;XOX5X&X:Xz Z <.X.#.7XXX%X<X6X}.-X2X6X6X1X;X*X}.|.:X.X<X2XOXt.@X2X}.Z E.!.( ",
"S iX;X( eX!. X&XyX].7X2Xx F ..#.9.&.2.#.e.3.O.! 9X4X;XOX]..X].k Z ..A }.*X}. X(.eXwX-X=XqX%X].). X=X6X;X-XeXeX7X2.4X|.|.D 1X;XF ",
"Z wXY.N  X<X.X5X|.1XqX;Xh Z 6.&.o.L #.! L #.O.G =X[.Y.|.(.].|.h l { 5XOX.X=X XqXk k h x l j x x x x l x x k i x 5.=X}..XD E.,XZ ",
"v uX].M  X=X.XOXI.=X@X;Xh M G X.X.Y ! ..! ....G 2X[.+X(.}.]..Xh M ;X2X:X[.|.rXh =XXX;X.X<X|.|.[.}..X XU.oX(.`..Xq.@X{.}.W E.=XG ",
"n 7XH.N [.|..XeX#X=X2X{.h S ( ......L L ..O...L 6X;X}.=Xb.[..Xh ;XK.).(.}.3Xh |.OX.X].}.OXoX].(.(.].!.].(.XX!.'.1.|.}.P.x Z.[.x ",
"Z @XI.v .X|.OX[.{.{.{.T.t h S L Z v L U Y ..m ( 2X|.|.&X]..X`.T.<X[.P.OX;Xh [.].(.P.XX&X`.`.Y..XOX].!.`.'.(.OX1X#.(.*X!.x ].(.x ",
"x <Xt.x }.K.}.<Xb.l.].P.q k D G n D G G K G G ..2X}.[.}.(.|.].'.G.].].+X9 =XP.!.F.Y.P.=X].].`.].].|.&X(.%XT. XJ.O.%X'.L.x 1.^.l ",
"k oX0.x (.J.P.&X(.b. XG.t h S F v G D V S v Z Z ;X'.P.b.S.L.!.(.U.Y.;Xe ].].Y.G.{.U.P.K.~.'.(.$X(.].|.!.[.J.P.Y.+.Y.e.(.h w.Q.x ",
"h }.8.i w.<.<.R.I.W.P.}.q l A N Z A v Z Z N M A !.P.b.5.b.(.l.w.c.(.q [.(.t.~.^.L.'.m.G.Q.E.L.K.(.'.].Q.H.K.H..X..].E.L.m F.t.k ",
"h (.q.p F.J.F.G.c.m.F.e.8 p v V x Z M M M z M Z J.b.0.G.Z.Z.b.K.!.q U.e.L.l.F.J.1XF.V.S._.K.E.].!.B.c.F.L.Z.!.'.&.c.G.(.k +.;Xh ",
"i |.2.7 K.a.(.[.S.F.L.l.8 i M v V M N k v z N Z =XJ.F.(.K.fXp.|.q Q.t.!.b.8.c.Z.bXbXS.bX!. XbXbXbXb.l.F.S.<.x.K.:.Q.i.W.r :.!.h ",
"q I.8.k F.r.U.2Xn.`.P.F.q p x x h l x v x M Z x (.!.l.w.y.U.Y.9 (.9.m.t.a.H.K.bXcXcXxXcXcXY.cXcXcXcXf.b.e.e.t.e.D Z.w.F.f e.!.h ",
"h _.{ i n.p.N.].K.!.b.t.q h S Z N x N v V M M N R.K.+.s.F.J.|.6 E.G.m.L.w.!.l.xXcX(.J.bXzX}.J.U.bXzXb.l.w.k.F.Q.L (.l.).i 2.j.i ",
"6 }.U.7 6.9.w.Y.l.^.+.n.6 8 v l M j z x v M j x |.F.F.l.a.G.F.6 }.Z.L.l.K.G.Q.h.xXA.H.Y.cXZ.J.C.bXxXb.r.G.b.(.K.K a._.&Xp t.H.p ",
"t [.t.q _.G.t.[.U.P.P.i > 6 h p h f h h m l z x )._.s.M.a.l.(.6 `.n.Z.b.e.0.m.cXcXP.d.bXm._.x.m.bXZ.V.).M.j.Z.Q.x b.T.(.f &.R.q ",
"q .X_ 7 l.b.Z.Y.G.P.c.e.6 q z k l z j p j r p i J.O.8.*.l.k.l.% x.t.2.l.M.l.{ zXxXe.F.bXp.l.j.K.bXt.G.t.w.J.h.J.m l.!.r.q 9.U.q ",
"7 I.6.6 q.0.t.G.8.<.u.0.1 q f f h l 9 z h h z p !.e.b.k.b.b.(.- k.<.,.t.<.k.p.bXxXbXbXxXcXt.vXbXzXzXr.vX4.<.K.k.N P.k.j.7 8.a.8 ",
"6 (.,.6 Z.G.Z.(.4.w.9.Z.3 q h i h p z t h r l p W.3.a.3.u.*.Y.1 J.b.l.b.8.v.Z.~ zXzXzXxX1.w.b.zXcXcXcXzXF.w.x.K.D b.w.&.6 6.Z.6 ",
"6 ].%.3 k.2.0.P.a.9.J.0.3 9 q i h h p h q r r r `.r.w.c.l.l.(.1 b.!.t.8.w.0.t.8.` 2.L.J.a.M.2.b.c.9.;.j.E.e.w.M.S 9._.S.6 <.l.7 ",
"6 ].Y 6 d.X.p.J.l.t.i.2., 8 h a r p q r p q q q `.u.p.g.;.~ (.> G.e.J.<.9.e.s.#.bX2.zXl.lXvXZ.xXbXx.cX2.G.(.G.l.B c.b.N.* l c.3 ",
"6 p.~ 6 b.8.e.J.l.>.w.>.> 1 r p q p q i i 8 p 9 Q.+.9.j.b.r.P.> b.C.e.9.3.y.w.:.e.S.l.p.$.i.e.m.9.w.e.w.8.0.e.s.D K.n.~ ; p D ; ",
", (.o.> C.<.E.U.w.( 6.S > > q q 9 q 7 i q q 7 6 (.<.k.2.n.r.].- w.3.9.a.9.-.C.:.lXvXzXL.bX0.cXzXj.bXU.Z.k.9.K.0.n G.l.Y.1 #.e.> ",
"> H.~ , <.! 4.R.,.3.0.2.; 6 8 9 q 7 q 9 q q q 6 M.t.$.b.4.;.l.: `.) 8.i R V R R ' ;.b.3. .x.z.c.t.M.u.2 Z.k.e.b.a t.c.` 3 { 5.> ",
"> F.( > <.e.6.t.M.W +.;.* 1 q 6 8 7 6 6 > > 8 q J.6.r.9.#.#.!.; H.O.n.j.6.<.<.<.* - &.* * 2.* ; J.; : k.m.5.u.m.I #.p.Z.6 X.#.6 ",
"> M.+.> w.>.t.G.8.G #.6.$ > 6 8 1 > 6 6 6 > 8 6 c.b.O.e.-.9.b.* j.0.8.O.2.8.p.b.* > w.> 1 w.* 1 :.* > O.a.F.b.@.m :.l.Z.> Y J.> ",
"; (.` * 4.w.( w.a <.) t.* > 8 , 3 > 9 6 1 6 6 6 l.B i #._ w.S.* 2.[ ~ ~ J #.5.l.* > / * > t.* > #.* > u.Z.g.F.l.a t.v. .> <.+.> ",
": b.G > #.<.#.H.;.8.[ o.* - 1 > 3 1 > - 1 > > > O.{ G :.6.~ w.* a.%.` w.#.k.o.0.$ > 3.* ; +.* - 1.* = #.3.m.l.F.M 3.w.6.> C J.- ",
"- M.V ; :.P <.t.2.) ' b.* = 6 > > 3 3 3 6 6 6 , (.6.9.&.<.~ '.* Z.) w.r.F.F.3.2.* ; O.* - 2.% = 9.* - <.<.Q.t.b.x 9.C.<.* >.G.: ",
"* e.d * .. .8.C.b.o.x O.@ * 6 > > > 6 6 > 6 1 > W.F.e.O.4.R K.@ l.[ 1.<.V l.m e.$ > b.* : >.& * O.% * C.+.4.! [ 4 2.` w.- ..h.: ",
"* p.U * X.Z Q l.D ' L ` & * : ; > > > ; > > > > 0.0.<.0./ ] O.@ J.[ >.N 1.M.2.w.@ * l.$ - M.@ * %.@ - &.1.9.2.9.f &.~ 1.- ! ^.* ",
"* t.h * ' S F w.O.{ $.) &.J.L.<.b.l.(.W.P.l.l.l.K.b.6.$.@.>.Z.@ l.@.%.:.9.<.2.:.<.6.2.8.r.0.;.9.A.2.*.e.O.<.%.j.l %.4.6.* ! l.- ",
"* l.Q * X.X.L 3.W & & a.9.Q +.! G +.<.! w.K %.&.>.$.6.L ) :.J.@ q.O.0.0.w.8.3.X.X.%.b.b.0.r.u.<.F.e.3.q.0.* * 8.6 r.2.#.* T k.$ ",
"@ w.A % W 6.B G.' @ 4XX.s.#.( } 8.r.#.2.2.i.:.#.k.' %.X.X.<.a.@ P.2.o.a.>.w.( ] O.V @.<.t.:.;.;.9.t.O.m #.6X% [ i 8.<.#.$ +.~ $ ",
"$ w.a O V T ' 6.' ..@ W V / ) L o.K 1.I D w.[ 9.%.#.G 1.O.K &.@ B.#.[ O.P X.+.O.<.g.' 9.$.<.=.n <.p.#.<.5.@ R 8.: :.1.~ @ m  .@ ",
"@ e.a @ +.O.#.N.) #.4.Y >.+.J :.J Q 6.D >. .) &.} 8.$.6.( $.e.+ l.` Y ~ o.M.*.e.) ( L t.$.2.`  .! +.t.e.[ <.l.#.q  .` / @ C 8.@ ",
"+ P.d @ 1.R ( % @ @ o @ @ @ + @ @ @ @ @ @ @ @ + @ @ @ @ @ @ O + @ @ @ + @ @ @ @ @ @ + @ @ O + O O o o o @ @ @ @ @ <.l.,.@ W  .@ ",
"@ r.= + % m ; * l r m f } E x G 7 i -.F H G Y $.>.%.S <.) S A _ ! 3.' U ' 2.! t.m y <.! P ) v.k.w.' <.6.W m 4.h.e.8.T { + Y ~ @ ",
"+ 0.O O J L ..$.2 Q V R N E D V M D A v J #.] W ( D Q 0.5...o.H w.+.X.@.N e.<.%.8 | +...r.:.:.<.! K S H G 1...>.D <.8.` O o 8.X ",
"o u.e.9.W O.O.W 4.E i [ ) ..A Z L ;.K t.j.Q 1.O.o.<.) >.F J ( L { R ) ~ ( ! %.#.@ ` ( ..@.9.O.>.m O.b.( +.` #.9.) ..f.' S Q k.o ",
"o o.o OXW o o o o o o o o o o o o o o o o o o o o o o o o o o o o o o o o o o o o o o o o o o o o o o o o o o o o o o w.6Xo 1.o ",
"  $.o o k o 6 k m V Q t B l , h n K S N z v w < w a ! N Z v e T Z v v w 3 N w = v x v v l 6 8 s e i 6 y N  .2 ' m D o D.o o 4.o ",
"o #.S S @.N G ~ C ! V Z v A U L +.Z e M K n x H A Z A @.Z G Z D } S L 9.! R B K { +.{ -.Z L B S ! @.<.D q.X.;.C.5.m 6.9.b.;.>.o ",
"    X               X   .   o X     o             .       .     .     .     o                                               X   "
};
