/* XPM */
static char *south[] = {
/* columns rows colors chars-per-pixel */
"64 64 30 1 ",
"  c #1D1C1E",
". c #1F1E20",
"X c #201F21",
"o c #242324",
"O c #272628",
"+ c #3C3B3E",
"@ c #454346",
"# c #474549",
"$ c #49474B",
"% c #4E4C51",
"& c #514E53",
"* c #545256",
"= c #575458",
"- c #59565B",
"; c #5D5B5D",
": c #605F5F",
"> c #5F5D61",
", c #5F5F61",
"< c #615E62",
"1 c #626162",
"2 c #676368",
"3 c #686468",
"4 c #88868A",
"5 c #8B898D",
"6 c #8F8D90",
"7 c #918E92",
"8 c #929192",
"9 c #979698",
"0 c #989599",
"q c #9A999A",
/* pixels */
";<1;*;oq<1*-<1oq1111>;oq<111<;o0<1<111oq1<1111oq;&&;<<oq-%%%$&X8",
"<;;;;-oq<<**<1o0;1111<oq<11111oq1<1111Oq111111o8;;;;11o0;*$*&@o8",
"-;>111oq11<<;<o8;<;;1<o8<1111<oq1<1111oq-;111;o8;11<<1o0=-&*=%o9",
"%*<111oq11;;<;o8<<;<<1o0;><<11oq11111;o8;;;111oq1111<<o0;;;-=&X9",
"->111<oq<<<;*&.8---=-;oq1<<11;oq111<11o8;;<<<1oq1111;<o0<<<=**X5",
"-;1<;1oq;<<-&&.5*-=&--oq<<<<<1oq11<<1<o0;>1<;1o0111<><oq;>>;=-o5",
"*;<1;1oq1<--=*.5%%&*=;o9&*;;1<oq<<;1<1o0;><;11o011<;;1o0;;><*;o8",
"=;>1>;Oq1---**.5&%&&&-o8*&*<<<oq<;-;><oq<<<<11oq<1;><1o9;;;<<;o0",
"*;;<<;oq1;>-*<o8&&&%&=o6-*<<11oq1-$*;<o9;<;--;oq<<<<;;o8<<<2<-o9",
"<;;111oq<1>**;o0=&%&&&X8<>1111oq<&$%;1o0<;$$*;oq1>><<>o91<;<&-o8",
"1<11;1oq11;=-*o9$&&&-;.8><111<oq1;&*;1oq<;&*;;oq;<<;;;o822%$$*X8",
";11;;;oq11;**-o9&&&*>;o9<;1<;<oq1<><;<oq11<;;<oq1<;<;* 5<;->-% 7",
";<<11;oq;<1>;<o8**&=>-o0><<1<<o0<<;<<<oq1<1<11oq1<><>;o9;><;-&o8",
"<<<;1;o8;;<;-;o5&&*-*;o0<<11<;o5;><111o8<11111o0;*;*-;o9;->*<-X8",
";;;;1>o8$&;;=*o7&&=;><oq1<11;;o8*;1;<1o811<<11oq;@#**;o0;&->--o0",
">;;<<;o9%$;;<;o6=--;<>oq>><1<<o8-;<1<;o9<<;<11oq;%$*<<oq<-><*-o0",
";--;;;oq**$;;>o5*--><;o0;1<1<<oq;;;=--o811<<>;o8-*%*<<o0**;--;o0",
"--**--oq;;;;;-o8*=-;:<oq<<11;1oq<<;**;oq11;*;1o0>-&&-<o8=**>>*X0",
"--=*--oq;1;;<<o6&&&-<;o0;<1;<<o9<><;;1o011;<;1o7--==&;o7-=*>--o8",
"----*;oq1<;-;1o5&*;-<<o9<<1;11oq>;>;;;oq1<1<<1o8-=**** 5&&*-;<o8",
"-;;**;oq1;;;<1o0-;;;;;oq;>1;11o0;<<-*>oq<-**;1oq<;*%&% 4&&$*--o8",
";<1;;<o8;;$*;;o0<;<<;1o0<11<1<o0<<<<;<o0**&$*1oq1;=&%-X4&&%&&=o0",
";<1<11o8;;;-;;oq>><<<<o0><<111o0<111<1o9$*%&;1o0<-*-*>o5%$%&**o0",
"<;;;11o8;;;;1;oq>;<1<;o8<1;;<;o0111;11o0--$&<1oq1;><;<O0;&$%*&X5",
";;;><<o8<;;<;;oq;;<;<;o0><<<;<o0;<<;11o01<-->1oq11<>;<oq-*$&&=o6",
"*-<<;;o0<;<<;;o8;>;;;;o0;1>;<<o0;;;><<oq;1>;<<oq<1;;>>o8&*****o8",
";;;>;;o8*;<;;<o0<;;;><o0;<;;<;o0<;<11;oq<11;<;oq<;;<11o6%**$$*X8",
";>1;-;o7*;;*;;oq<;>11<oq<<;;;=o8><11<;oq111;;;oq;*;<;;o8&****;o7",
"-11<*-o6*>;;;;o9;;;<;<oq<;>>=*o8<<;<1<oq1111;;oq--;*;>o6&;;=&&X5",
"-;<;%*o5$;<;;<o8;;;<;;oq<;<-**o8>;<<;;oq11;<<<o8;;;<<;o5*;<*%%o6",
";*****o5$=<;<;o0-;;>;;o0<<;;-<o8;<;&->o0<<;<<<o8=;<<;-o7*--;&$o8",
";&$$*$ 5*-;;;;o9--;<1;o811<<;<oq<<;-;;o011131;o8$&;;-;o8&**-&*.7",
"<-*$%$ 5*;;<;<o7-*-11;oq1><;<<oq>1<;;;o0<<1<11o9;-$*>-X5$$$%&& 6",
"-;;-$$ 7;><;;;o8--;;;<oq1111<;oq11<<;<oq1<1<<;o0;;*---.7%&&$&& 7",
"1><*$$X8;<-$$<o0*--*<;oq1;;;;:oq;;1<;<oq;<<;<*X8<;-=**X8**-&%&.7",
"<1<**&o9;<*$%>o8;;;;<;oq;;;;;1oq;;<1<>o0;<;;1<X81>-&&*o0*$&&$%X8",
"*<<;*%X7*<=*-;o8>><><<oq;;;;;<oq;;<1;*o0>>;>;<o8;;;**$ 6%&%&$$o7",
"<<;<$%.6-<;;<<oq<;>>><o0;;;;:;o0;;<1<;oq>>;*->O0;=>>;& 5%%%$%&X7",
"<<;<;&.7;<<11-oq<<>;;<o0;;;1:1oq;<;**;oq<1-@*<oq;-<-%& 6$%%$$&X7",
"<<;<;;o7&-;-;-oq>;;;<;oq;;;<;1oq<<<-&*o0;;*$*-oq;;;;*$o8><%&%%o8",
";<;-=>o6$$**->o9---;;;o8;;<;;;o8-;<<;=o0;;>;=;o0<>-=-=o8==*=-=o8",
"*--&--o5%&&==>o7--;;-;o9;-;;;;o7$;><*$o0<><<<>o0;&*-*<o9=$&*&&o8",
"==***& 5*&*---.5=-;;;<o9;*;1<;o8;;;<;*o9<;>;<-oq<+&->>o5*%&%*$ 8",
";*&&&% 7-=-->-X7*;;;;<o0<<<;>;o0;;;;=$o8><;-;;o8---*=;o8**%&&$ 5",
"=&&%*&.7-->;-*X8><>><-o0;;;><;o8;:;;;*X7;>>---o9-**=;<o8%$$$$% 5",
"-*&%$&o7*>;>=$X7-<1;;;o0;;;1;;o0;;-;;*o8-<-%*;o9;*&$=;o5%$%$$% 5",
"*=&%$=o8-;>-*&X7;<<><;oq;;<<;;o9<;<<;*o8=;-**<o8;;*%*&o6%%*%$$ 5",
"**&&&&X8<-*-*-o9;;;<<;o0;;;;;;o8;;;<;-o8**-=-=o8;-*&&&X6&#$$$$X5",
"&&$&*- 5*%***-o8;;1<;>o8;<-;><o0;=--;;o8;-*$%$o8<*=;**X5$$%$$*.5",
"$$$$&=o5$$&%&>o8;32<;<o8-;;;;;o8&**;;;o0-*-##%o8;*=-*-X5$$%$$%.5",
"-;*%**o7%&$&**o8;;->>;o8;;>;=*o5%*;;=;o7-;--**o8-***&=X5$$%$%&.5",
";=**&& 5;;$%&$ 6*=-=&*o8;;-*-;o8*->;;>o8;;;;;;o8;-;-*& 4%%%&%% 5",
"=*=&%* 5*%%-=%.5%;-*%*o9;;;;-;o8*;;<;-o8-$-;;;o9*;;**& 5$*$%$%.5",
"=-*&**o8$$$**$ 7=-;;-*o9<;;;;*X8*;;**;o7&&=>;;o8;=*=*&.6%%$$$% 5",
"&&&**%o8$$&**$o8;*-;-*o8<:<;;*o8->;**;o5&*$*=&o5***-*&.6%%$%$$ 5",
"=*%&$% 5$$*%%;o8;;=--*o0;;;-;;o5$*&**=o7&&$*$$.7;;**&* 5%&&*$% 5",
"-*=*$% 5$#$$*;o8;--;--o8;;;*;;o6&&@&-;o7*--*&&X5%=-*%*X5%%*&%% 5",
"*--%%%o5$$$*-;o5;-**=*o8;;;;;;o8>;=><<X8-*>;**X5$&**&*X5%&$%$$ 4",
"*;;&$$o7$$&*-;o5%--&*=o8;;;;;;o8;--*->o8*%-*%&X4*=*;-;o5$&&%$$ 5",
"%%*$$$ 5$*&***o0==*%**o8;;;;**o5$*--&&o8&$%%%&o5==-=**o8$**&%$ 5",
"%$%**$o5$*==**o0>&$&*-o8*;;--;o5**-***o8-&%&&%X6*;>*%$ 7*=-$%$ 5",
"*$*>--o8**;-*=o8<%&*--o8;;&$*=o8&%&**=o8=*%%%$ 5->=%&% 5$*=$$&.5",
"-%&;;;o8-=&*--o8;*&*=-o8-*#$%&o8&&**--o8&*&$%&o5$*$$%% 5$&&%$*o4",
"=&%*;;o8;*&***o8&;-%*-o8**&$== 5***=-=o8%%&%&&o8*&&$$$ 8$$%$%$ 4"
};
