/* XPM */
static char *west[] = {
/* columns rows colors chars-per-pixel */
"64 64 27 1 ",
"  c #2F2F2F",
". c #3F3F3F",
"X c #5F4B3B",
"o c #7F533F",
"O c #4B4B4B",
"+ c #5B5B5B",
"@ c #6B5747",
"# c #6B4B57",
"$ c #7F4B5F",
"% c #4F6357",
"& c #7B6353",
"* c #474767",
"= c #775363",
"- c #7F5B6F",
"; c gray42",
": c #7B7B7B",
"> c #8B5F47",
", c #876F5F",
"< c #9B6B53",
"1 c #977B6F",
"2 c #8B677B",
"3 c #6F837B",
"4 c #A3877B",
"5 c #937387",
"6 c #8B8B8B",
"7 c #AF978B",
"8 c gray67",
/* pixels */
"                                                                ",
" 77777777777777777777777777777477447444444444444444444444444444 ",
" 7,+++++&;:++;6;;+&;++&+;+;;;;&;+++++++;+++;;;;+++++++;+++++O+: ",
" 7++++&,,;&+&;o:&2+&>2<<&&;&1<,,++++++++;++++;;+;+;+++;;;;++++: ",
" 7-+;;;6:,,&+,5o,2&;,>,-,;;;;&;54;++++;;;;+++;;+++++++;;:;++@+: ",
" 7++;++;::,,4<o>>1;&+;&;::11,511,,;;+;+&::;;++;;+++++;;1::;+++: ",
" 7+;;+:661:+;;:+;;;;;+:661:1111&5,,6@;:661:;;&5;++;+++:661:;++: ",
" 7&;,:66:.+;++;+7;;;;:66:.+411,45,4+;:66:.+;;;;;;,&;+:66:.++;;: ",
" 7,;;+...O+;++>$+;-;++...O+15,51:,;,,+...O+;+&;;;;++++...O++;;: ",
" 7;;;&O..+1;&o:1:,1136O..+,1,5,,1&+1,;O..++++;@;;+++;+O..+;+;+: ",
" 7&+;;+;+,,&;&,-;;211&+,+52,5515,1&;&-+,+5;+,&;,&++++++++;+++;: ",
" 7;;+,,,,:&,<&&,&&5,1:,11&1,154:1:&&;,:,,:;1,;+;;+;+++++;;+;+;: ",
" 7;;,;,@+;:;;;;+&-&:::,15<5>1,115;5-,;:,,:11+;;;;+++;;++;;;+;:: ",
" 7,;,,,,,,&5,&:,,oo1;6:57:,,51,155,&-&;,&111;1;;&+;+;+++;++++;: ",
" 7;&&;&&,&&,5,>5,;&&,1,:::,51;5;,,1&o,&-;;;;;61;;+;+;;;+;+++:;: ",
" 7&:;;:;,,:21,-1:;2,:&+:5,>;;;,,,&&&&&,,;;;;:,;111;;;;+;;;;;++: ",
" 7;;,&,+&,-<&&5:;,&>&&&<41;;;,,&;&&;o,:&,;1;511:;1;+;1;;;;;++;: ",
" 7;;1;;,,:&>&+,$;&>&;&:55&&;,,,,1&;&-,,&:::15,::1;:+;++;;;;;++: ",
" 7;;;:;,;;&;;,;;&,>;&,&,>-;;,,51&&;&&,,,&,,1::-1;1:;;+;;&;1;;+: ",
" 7;;1,;,,+&-,;+;;:>-;-1;-;;+;;,&;+-&@;2&&,51;+;;1+;+;;;;;&:;;+: ",
" 7;1;,:,;;1&:;+-;;;&;;;;1&;+-&&&#&&-;-&5551,,;;;1+:1;;+;;;:;;;: ",
" 7;;;:;;::;&O&&;;;;;&;,-&+&;-<;&+;&&>-&,&55,&,,,:;:;+;;;::;:&+: ",
" 4;;;;:661:;&--;&-&;;>5;&:;;;+55&--&@;&&&&:,;:5:;;;;;;:661:;&;: ",
" 4;;;:66:.+,&;+;;,o&>;,;&,&&&&&,>&,--,1&&&1&,;&;2:1;;:66:.+:;+: ",
" 4::;+...O+&;;;+;>@-;,;&,;&,;;;;&-,-&,,;+&1;:;;;;1:1++...O+;1;: ",
" 4;::,O..++;+&O+;,;+&,;;&+::,&11&&&-,&,&++1,,;;;;;11+,O..+::;;: ",
" 7+;;;+;+;+;+++++-+-;&&5,&;&;;;;,;1:1:,1&,55,,;;:111;;+;+;:1:+: ",
" 7+++,:;+;;+,;+;->;&;&&,,,,,,,;,&&+;&&-&;;;;,:;:&1;;;;;;&;;:&;: ",
" 7+;&;&+;;;,,&;+-,-+&&551,&+1;5:5+,&&&&+,,&,5;;;;;;;;;;;;:1;:;: ",
" 4,&1,,+++,;>&&+@:-&&1:;;225,5,1,5;:&;,&:1,;;55,;;;;;;:;;;+;:;: ",
" 4,<,:,,;,++&-@;;&+&&21::&2,,,:,,&2>+O+++;,&,6;7;+;1:;+;;;1;,;: ",
" 7--,,&,,,;&++-&;o&&o&;,&2,,5,,,;;&>---&&;&&,&+;;++;;;&;;;+;;;: ",
" 4$-,&;;;+@>,+#@+-o222;,,&>&;1:,5,>@@&&+;;;+1;;+;+;;;;;;&1;:1:: ",
" 4>,,&&-&++&&@-ooo+;&2&-2&2+&&,<-&@&-;;&;+;:;@++;1;;;;;;;;;;:1: ",
" 4&,5515-+O+&-&-+&;&&+oo2&,,-5,52-+++%:;;1;;;6;+;;:+;;;:;1:;::: ",
" 7&&,,+@+,-+&o@++&&-&&@+-&+++&&&-++;1;;;;+;&,,,+;;;;1;;11;;;1;: ",
" 7,&,&;+@&++;$@;;+&;,;&-@+-->,5&-+O;;;;;;;&,,5,,;+1+;;;&::;:;+: ",
" 4,+5;++::++-;-+@&,;,&;+,&&&&&-+@+-&&&&&+;;&&,5:;;;1:;;1::++;+: ",
" 4&+&+:661:+O+;;;;,;>-,;;;;-+++++++++&&;;,&&:,1451;;;+:661:+OO: ",
" 4+&+:66:.++OO&++;;&,&,;&;++&&++;++;;;;+++;:+55+;;;+&:66:.++O+: ",
" 4&;++...O+;;+++;&@&;,&;:++;;;+;+++O+;:+O+;1,,;;;,++O+...O+OO+: ",
" 4;&+OO..+++++;;,+;;;,;,&,+&5;+&;:+O+;;+&&,,5,,5,;;O+OO..++OOO: ",
" 4&&@7++++;+@@+#,&;&&,&,,,2++++--;O++5&&;;;;;;,&,,;,-,+O+O+&OO: ",
" 4-&##,&&&+>>++o;&&&+;,,4,,-,&++O+;+++;+4+,;+:,,,,+,+O@OOOOO+&: ",
" 4&+#@-#,--&-o@-,,,-&,,,,,;&&-++-++++;;+,,+&1,515,:,&@OOO++O+O: ",
" 4@&@@+@&@@@-#-&@&,&-&;12,2,;,&&+;++;+++&&;-52+,&,;-@+OOO++@+O: ",
" 4,;@@@++&@@-@@o--;+-&&&,,;&&++@-=++++++,&-&,&,&,,&&+&;++++O@;: ",
" 4@;#@@-+@+@@+@+;,,-&,-,,,1,;,+++@++&+++&;+&,&,;;,:;+,+++&+;OO: ",
" 4#&@+@@-=+o@@#;,,,&@-,&5,5;+&&@&O+;+;++&-&&1;&;;;;;,-&&&+@OOO: ",
" 4@++#-->-o@-,>-,,O;++&,&,,&&&-+;;,++++@-&-&,++++;&&&,,,&++O++: ",
" 4+&;;@oo==,@;,,-;&>@;+;,,;&&;+++>-+++++--&&,;+;,;+&+OO@;O+OO,: ",
" 4&;++++++O;;++O+++o&&-&>&+&&-&;;+++++++;,--&;;&&+;&&+-+@+++++: ",
" 4;+O++++-;,+,#o$+++-+++++++;+++++;++O+++&+&,++;+;;&+&--+++OOO: ",
" 4;+++->::;&-;,;++++,+@O::;;;;+++++;;+++::&2,;&+,,;&-+++::+OOO: ",
" 41+;+:661:;;O;+O+;;;O:661:1&+++++++++:661:&&;+&1&,&&+:661:&+&: ",
" 4;+O:66:.+++O+++O+++:66:.+;;+++++++;:66:.+++;++;;;:&:66:.+&&+: ",
" 4;+++...O+O@;@+O+++;+...O++1;;++@++++...O+++;+::;8;++...O+-&;: ",
" 4+OO+O..++++@O@++O+O+O..+++;;+++++;@+O..+;+++;;O1;++&O..+&-;+: ",
" 4+;;;+++;+++XXOO++++++@+++&+;+++++++++++++;+++;;;:&-&+++;,+;+: ",
" 4+O+++++;OOOXOX@X+O+@++OO++@++++O+O++++++++;++O+;:-+&;+;;+++;: ",
" 4+++++++@OOOXOOX+++O*++OO++@+++++++++++;;;;+++;+;1@&;@++;;;;;: ",
" 4@O;O;+O++O+OOO+O+O&&OOOOOO++O;+O+++++;;;+;;++O++;++=+++++;;;: ",
" 4::::::::::::::::::::::::::::::::::::::::::::::::::::::::::::: ",
"                                                                "
};
